HIERARCHY
ROOT Hips
{
	OFFSET 0.000000 0.000000 0.000000
	CHANNELS 6 Xposition Yposition Zposition Xrotation Yrotation Zrotation
	JOINT LeftUpLeg_virtual
	{
		OFFSET 0.000000 0.000000 0.000000
		CHANNELS 3 Xrotation Yrotation Zrotation
		JOINT LeftUpLeg
		{
			OFFSET 13.026900 -6.336304 -1.092800
			CHANNELS 3 Xrotation Yrotation Zrotation
			JOINT LeftLeg
			{
				OFFSET 0.524474 -46.096886 9.782700
				CHANNELS 3 Xrotation Yrotation Zrotation
				JOINT LeftFoot
				{
					OFFSET -0.524474 -53.427422 -12.948200
					CHANNELS 3 Xrotation Yrotation Zrotation
					JOINT LeftToeBase
					{
						OFFSET 0.192200 -14.009700 16.364100
						CHANNELS 3 Xrotation Yrotation Zrotation
						JOINT LeftToe_End
						{
							OFFSET -1.784700 -0.561700 9.474800
							CHANNELS 3 Xrotation Yrotation Zrotation
							End Site
							{
								OFFSET 0 0 0
							}
						}
					}
				}
			}
		}
	}
	JOINT RightUpLeg_virtual
	{
		OFFSET 0.000000 0.000000 0.000000
		CHANNELS 3 Xrotation Yrotation Zrotation
		JOINT RightUpLeg
		{
			OFFSET -12.883000 -6.336304 -1.092800
			CHANNELS 3 Xrotation Yrotation Zrotation
			JOINT RightLeg
			{
				OFFSET -0.524587 -46.096825 9.782800
				CHANNELS 3 Xrotation Yrotation Zrotation
				JOINT RightFoot
				{
					OFFSET 0.524587 -53.427383 -12.948300
					CHANNELS 3 Xrotation Yrotation Zrotation
					JOINT RightToeBase
					{
						OFFSET -0.192200 -14.009700 16.364100
						CHANNELS 3 Xrotation Yrotation Zrotation
						JOINT RightToe_End
						{
							OFFSET 1.784700 -0.561700 9.474800
							CHANNELS 3 Xrotation Yrotation Zrotation
							End Site
							{
								OFFSET 0 0 0
							}
						}
					}
				}
			}
		}
	}
	JOINT Spine_virtual
	{
		OFFSET 0.000000 0.000000 0.000000
		CHANNELS 3 Xrotation Yrotation Zrotation
		JOINT Spine
		{
			OFFSET 0.072000 7.257294 -0.789700
			CHANNELS 3 Xrotation Yrotation Zrotation
			JOINT Spine1
			{
				OFFSET 0.000000 12.508769 -0.658067
				CHANNELS 3 Xrotation Yrotation Zrotation
				JOINT Spine1_split
				{
					OFFSET 0.000000 12.508769 -0.658067
					CHANNELS 3 Xrotation Yrotation Zrotation
					JOINT Spine2
					{
						OFFSET 0.000000 12.508769 -0.658067
						CHANNELS 3 Xrotation Yrotation Zrotation
						JOINT Neck_virtual
						{
							OFFSET 0.000000 0.000000 0.000000
							CHANNELS 3 Xrotation Yrotation Zrotation
							JOINT Neck
							{
								OFFSET 0.000000 14.033295 7.520400
								CHANNELS 3 Xrotation Yrotation Zrotation
								JOINT Head
								{
									OFFSET 0.000000 8.198502 5.703100
									CHANNELS 3 Xrotation Yrotation Zrotation
									JOINT HeadTop_End
									{
										OFFSET 0.000000 17.760803 13.332701
										CHANNELS 3 Xrotation Yrotation Zrotation
										End Site
										{
											OFFSET 0 0 0
										}
									}
								}
							}
						}
						JOINT LeftShoulder_virtual
						{
							OFFSET 0.000000 0.000000 0.000000
							CHANNELS 3 Xrotation Yrotation Zrotation
							JOINT LeftShoulder
							{
								OFFSET 6.292450 5.785301 -0.669000
								CHANNELS 3 Xrotation Yrotation Zrotation
								JOINT LeftShoulder_split
								{
									OFFSET 6.292450 5.785301 -0.669000
									CHANNELS 3 Xrotation Yrotation Zrotation
									JOINT LeftArm
									{
										OFFSET 13.907140 -6.093903 1.965100
										CHANNELS 3 Xrotation Yrotation Zrotation
										JOINT LeftForeArm
										{
											OFFSET 34.140198 0.000000 0.000000
											CHANNELS 3 Xrotation Yrotation Zrotation
											JOINT LeftHand
											{
												OFFSET 40.960209 0.000000 0.000000
												CHANNELS 3 Xrotation Yrotation Zrotation
												End Site
												{
													OFFSET 0 0 0
												}
											}
										}
									}
								}
							}
						}
						JOINT RightShoulder_virtual
						{
							OFFSET 0.000000 0.000000 0.000000
							CHANNELS 3 Xrotation Yrotation Zrotation
							JOINT RightShoulder
							{
								OFFSET -6.292450 5.785301 -0.669000
								CHANNELS 3 Xrotation Yrotation Zrotation
								JOINT RightShoulder_split
								{
									OFFSET -6.292450 5.785301 -0.669000
									CHANNELS 3 Xrotation Yrotation Zrotation
									JOINT RightArm
									{
										OFFSET -13.907140 -6.093903 1.965100
										CHANNELS 3 Xrotation Yrotation Zrotation
										JOINT RightForeArm
										{
											OFFSET -34.140198 0.000000 0.000000
											CHANNELS 3 Xrotation Yrotation Zrotation
											JOINT RightHand
											{
												OFFSET -40.960209 0.000000 0.000000
												CHANNELS 3 Xrotation Yrotation Zrotation
												End Site
												{
													OFFSET 0 0 0
												}
											}
										}
									}
								}
							}
						}
					}
				}
			}
		}
	}
}
MOTION
Frames: 7
Frame Time: 0.03333333
3.885379 115.840111 -12.397732 0.000000 0.000000 0.000000 4.932760 6.999369 1.226700 -16.323063 9.162236 9.169764 15.985185 -2.097778 1.207636 -3.134588 15.469660 -11.073394 4.915670 -2.696466 1.640787 0.000000 0.000000 0.000000 6.038006 7.019338 1.167297 -10.951225 -5.272639 -3.654382 15.740294 11.552948 -4.205560 -9.086501 -17.872599 17.623490 2.219068 5.066660 -6.585324 0.000000 0.000000 0.000000 5.028237 12.318042 -0.228701 3.404738 -1.470093 2.675336 1.510458 -1.583276 0.255334 0.116347 -0.015055 -0.028039 0.000000 0.000000 0.000000 2.739957 0.942825 -0.217019 0.108018 9.823234 2.032082 -2.453823 -10.489250 -0.284277 0.000000 0.000000 0.000000 1.603400 -0.734141 -0.517767 1.731326 9.458227 -13.526807 0.217821 -2.791723 -0.395683 8.276208 1.096850 -52.460432 7.967316 -30.630321 1.960363 0.000000 0.000000 0.000000 3.133031 -0.035760 0.022854 -2.019640 -11.201456 12.498930 1.366394 -0.928526 1.452795 6.549395 14.787071 59.318533 -2.066831 27.754897 2.684811 0.000000 0.000000 0.000000 
4.509187 115.630844 -12.463947 0.000000 0.000000 0.000000 4.881009 6.660198 1.255851 -16.362039 9.307811 9.006990 15.942572 -2.195273 1.064659 -3.832510 14.910484 -11.187474 4.958114 -2.665850 1.695576 0.000000 0.000000 0.000000 5.867476 7.113610 1.199769 -11.172900 -5.395846 -4.045161 15.720024 11.323521 -4.104336 -9.146871 -17.955147 17.252686 2.570081 5.066673 -6.515493 0.000000 0.000000 0.000000 4.929653 12.256824 -0.233133 3.443319 -1.466846 2.682499 1.445145 -1.604025 0.228423 0.135558 -0.037941 -0.016060 0.000000 0.000000 0.000000 2.707643 0.922446 -0.254047 0.164614 9.904651 1.981009 -2.443700 -10.309385 -0.380775 0.000000 0.000000 0.000000 1.641830 -0.770610 -0.546185 1.689610 9.207618 -13.483803 0.257823 -2.879266 -0.315423 7.942616 0.546702 -52.558022 7.916685 -30.915062 2.003186 0.000000 0.000000 0.000000 3.136866 -0.062089 -0.013723 -2.004160 -11.071700 12.570252 1.550383 -0.845141 1.348271 6.450019 14.698775 59.275346 -2.050594 27.880684 2.689529 0.000000 0.000000 0.000000 
5.513206 115.237953 -12.531780 0.000000 0.000000 0.000000 4.812711 6.575386 1.206952 -16.868563 9.320354 8.963469 16.750250 -2.753902 0.860752 -4.450689 13.445345 -11.711174 5.077926 -2.618372 1.848802 0.000000 0.000000 0.000000 5.708092 7.365529 1.133828 -11.579897 -5.550081 -4.708810 15.903622 11.053808 -3.964845 -8.906928 -17.967441 17.057984 2.743399 5.218092 -6.686621 0.000000 0.000000 0.000000 4.886462 12.246102 -0.243496 3.593953 -1.372244 2.770290 1.372526 -1.654731 0.189761 0.148768 -0.057717 -0.002719 0.000000 0.000000 0.000000 2.640331 0.873792 -0.306579 0.253039 10.028351 1.929616 -2.554106 -9.901565 -0.640679 0.000000 0.000000 0.000000 1.628019 -0.831582 -0.590934 1.631447 8.827721 -13.475476 0.335043 -2.863883 -0.282079 7.328121 -0.535975 -52.760435 7.853961 -30.726084 2.001761 0.000000 0.000000 0.000000 3.114850 -0.118704 -0.051939 -1.985486 -10.865080 12.871745 1.574484 -0.887666 1.118636 6.275132 14.532821 59.005560 -1.944640 27.658228 2.596056 0.000000 0.000000 0.000000 
6.749469 114.778038 -12.564152 0.000000 0.000000 0.000000 4.784011 6.833291 1.114402 -17.712308 9.062111 9.038585 18.126076 -3.541074 0.671482 -4.784483 11.363677 -12.355608 4.928452 -2.571913 2.102813 0.000000 0.000000 0.000000 5.663664 7.648897 0.993744 -12.084071 -5.725280 -5.572460 16.112174 10.837562 -3.798227 -8.372872 -17.864934 17.106928 2.784512 5.491563 -7.084314 0.000000 0.000000 0.000000 4.921847 12.251770 -0.276556 3.824619 -1.189540 2.925523 1.300834 -1.721349 0.145606 0.148956 -0.076355 -0.003625 0.000000 0.000000 0.000000 2.543917 0.803823 -0.360072 0.354672 10.169419 1.888578 -2.752101 -9.306647 -1.038475 0.000000 0.000000 0.000000 1.559029 -0.909619 -0.642684 1.563387 8.362077 -13.496883 0.348847 -2.671349 -0.278426 6.570608 -1.985699 -53.067066 7.775141 -30.082284 1.948078 0.000000 0.000000 0.000000 3.074426 -0.197708 -0.088709 -1.978477 -10.582276 13.338261 1.468990 -0.933487 0.827968 6.068838 14.337648 58.538334 -1.763652 27.210908 2.421335 0.000000 0.000000 0.000000 
8.091320 114.300171 -12.565426 0.000000 0.000000 0.000000 4.811706 7.279110 0.978999 -18.504147 8.507576 9.049753 19.600876 -4.078025 0.549593 -5.063559 9.204931 -12.452758 4.299713 -2.527253 2.345474 0.000000 0.000000 0.000000 5.731636 7.885844 0.820468 -12.708767 -5.931584 -6.586202 16.307329 10.712173 -3.582922 -7.741032 -17.644551 17.409129 2.958325 5.809443 -7.651327 0.000000 0.000000 0.000000 5.064132 12.291960 -0.337619 4.108624 -0.936007 3.122567 1.245152 -1.789496 0.108947 0.139928 -0.116447 -0.014381 0.000000 0.000000 0.000000 2.424755 0.718734 -0.400270 0.430021 10.292529 1.870048 -3.002089 -8.598044 -1.527669 0.000000 0.000000 0.000000 1.444825 -0.993908 -0.685616 1.489499 7.860715 -13.525185 0.309248 -2.399994 -0.385208 5.798345 -3.644055 -53.450834 7.670900 -29.165775 1.862363 0.000000 0.000000 0.000000 3.017849 -0.286776 -0.115848 -1.999853 -10.243531 13.886715 1.282849 -0.910650 0.545464 5.876813 14.188622 57.936533 -1.528366 26.662665 2.187131 0.000000 0.000000 0.000000 
9.422674 113.856453 -12.587528 0.000000 0.000000 0.000000 4.944527 7.637405 0.834370 -18.973630 7.736110 8.859254 20.820710 -4.048236 0.549040 -5.532606 7.467135 -11.709666 3.524425 -2.450713 2.334544 0.000000 0.000000 0.000000 5.823681 8.113466 0.666791 -13.501325 -6.150255 -7.707234 16.544598 10.646942 -3.319331 -7.104907 -17.385676 18.007770 3.235603 6.091572 -8.304295 0.000000 0.000000 0.000000 5.279270 12.400202 -0.417497 4.413824 -0.651967 3.308448 1.212252 -1.856806 0.087692 0.116273 -0.162886 -0.017809 0.000000 0.000000 0.000000 2.295701 0.626689 -0.417937 0.439276 10.386339 1.883024 -3.272977 -7.836080 -2.061372 0.000000 0.000000 0.000000 1.300228 -1.076054 -0.709573 1.421060 7.373327 -13.552850 0.247783 -2.162437 -0.523827 5.076156 -5.318521 -53.871345 7.569548 -28.190491 1.786513 0.000000 0.000000 0.000000 2.950830 -0.377009 -0.128877 -2.060251 -9.871080 14.448866 1.058911 -0.844546 0.305669 5.739109 14.139741 57.265682 -1.255133 26.057621 1.915692 0.000000 0.000000 0.000000 
10.716651 113.449448 -12.486561 0.000000 0.000000 0.000000 5.152205 7.722940 0.723721 -19.114435 6.861854 8.413927 21.751900 -3.496527 0.643933 -6.187282 6.257117 -10.406634 2.985420 -2.316654 1.938256 0.000000 0.000000 0.000000 5.890908 8.312220 0.586757 -14.421041 -6.331532 -8.928801 16.979608 10.593578 -3.031465 -6.385156 -17.159022 18.996686 3.113594 6.311786 -8.939960 0.000000 0.000000 0.000000 5.471463 12.570872 -0.499230 4.739054 -0.377459 3.418432 1.208260 -1.926133 0.091407 0.102232 -0.194560 -0.025165 0.000000 0.000000 0.000000 2.165100 0.534097 -0.405968 0.366211 10.446931 1.951413 -3.555044 -7.126295 -2.572733 0.000000 0.000000 0.000000 1.148254 -1.149588 -0.712205 1.365860 6.920638 -13.554296 0.148391 -2.004367 -0.750165 4.449437 -6.894992 -54.315403 7.494919 -27.303599 1.755121 0.000000 0.000000 0.000000 2.875239 -0.461542 -0.119211 -2.162529 -9.481985 14.969596 0.824748 -0.836910 0.126056 5.651878 14.194363 56.580150 -0.963655 25.413081 1.630004 0.000000 0.000000 0.000000 
